<?xml version="1.0" encoding="utf-8"?>
<!-- Generator: Adobe Illustrator 19.1.0, SVG Export Plug-In . SVG Version: 6.00 Build 0)  -->
<svg version="1.1" id="Logo" xmlns="http://www.w3.org/2000/svg" xmlns:xlink="http://www.w3.org/1999/xlink" x="0px" y="0px"
	 viewBox="0 0 1028.3 1028.3" style="enable-background:new 0 0 1028.3 1028.3;" xml:space="preserve">
<style type="text/css">
	.st0{fill:none;stroke:#CCCCCC;stroke-width:2;stroke-miterlimit:10;}
	.st1{display:none;}
	.st2{display:inline;}
	.st3{fill:#333333;}
	.st4{display:inline;fill:none;stroke:#CCCCCC;stroke-width:2;stroke-miterlimit:10;}
	.st5{display:inline;fill:#FFFFFF;}
</style>
<g id="Construction_lines">
	<g id="Circle_grid">
		<g>
			<circle class="st0" cx="514.1" cy="-2071.9" r="500"/>
			<line class="st0" x1="196.6" y1="-2621.9" x2="831.7" y2="-1521.9"/>
			<line class="st0" x1="514.1" y1="-2706.9" x2="514.1" y2="-1436.9"/>
			<line class="st0" x1="831.6" y1="-2621.8" x2="196.6" y2="-1521.9"/>
			<line class="st0" x1="1064.1" y1="-2389.4" x2="-35.8" y2="-1754.4"/>
			<line class="st0" x1="1149.1" y1="-2071.9" x2="-120.9" y2="-2071.9"/>
			<line class="st0" x1="1064.1" y1="-1754.4" x2="-35.8" y2="-2389.4"/>
		</g>
	</g>
	<g id="Squares">
		
			<rect x="160.6" y="-2425.4" transform="matrix(0.7071 -0.7071 0.7071 0.7071 1615.6143 -243.2817)" class="st0" width="707.1" height="707.1"/>
		
			<rect x="160.6" y="-2425.4" transform="matrix(0.2588 -0.9659 0.9659 0.2588 2382.3337 -1039.0018)" class="st0" width="707.1" height="707.1"/>
		
			<rect x="160.6" y="-2425.4" transform="matrix(-0.2588 -0.9659 0.9659 -0.2588 2648.4724 -2111.4753)" class="st0" width="707.1" height="707.1"/>
	</g>
	<g id="Inner_star">
		<line class="st0" x1="331.1" y1="-2388.8" x2="514.1" y2="-1705.8"/>
		<line class="st0" x1="514.1" y1="-2437.9" x2="697.2" y2="-1754.9"/>
		<line class="st0" x1="148.1" y1="-2071.9" x2="831.1" y2="-2254.9"/>
		<line class="st0" x1="880.2" y1="-2071.9" x2="197.2" y2="-1888.8"/>
		<line class="st0" x1="197.2" y1="-2254.9" x2="697.2" y2="-1754.9"/>
		<line class="st0" x1="331.1" y1="-2388.8" x2="831.1" y2="-1888.8"/>
		<line class="st0" x1="514.1" y1="-2437.9" x2="331.1" y2="-1754.9"/>
		<line class="st0" x1="697.2" y1="-2388.8" x2="514.1" y2="-1705.8"/>
		<line class="st0" x1="697.2" y1="-2388.8" x2="197.2" y2="-1888.8"/>
		<line class="st0" x1="831.1" y1="-2254.9" x2="331.1" y2="-1754.9"/>
		<line class="st0" x1="880.2" y1="-2071.9" x2="197.2" y2="-2254.9"/>
		<line class="st0" x1="831.1" y1="-1888.8" x2="148.1" y2="-2071.9"/>
	</g>
	<g id="Outer_star">
		<line class="st0" x1="264.1" y1="-2504.9" x2="1014.1" y2="-2071.9"/>
		<line class="st0" x1="514.1" y1="-2571.9" x2="947.2" y2="-1821.9"/>
		<line class="st0" x1="764.1" y1="-2504.9" x2="764.1" y2="-1638.9"/>
		<line class="st0" x1="947.2" y1="-2321.9" x2="514.1" y2="-1571.9"/>
		<line class="st0" x1="1014.1" y1="-2071.9" x2="264.1" y2="-1638.8"/>
		<line class="st0" x1="947.1" y1="-1821.9" x2="81.1" y2="-1821.9"/>
		<line class="st0" x1="764.1" y1="-1638.9" x2="14.1" y2="-2071.9"/>
		<line class="st0" x1="514.1" y1="-1571.9" x2="81.1" y2="-2321.9"/>
		<line class="st0" x1="264.1" y1="-1638.9" x2="264.1" y2="-2504.9"/>
		<line class="st0" x1="81.1" y1="-1821.9" x2="514.1" y2="-2571.9"/>
		<line class="st0" x1="14.1" y1="-2071.9" x2="764.1" y2="-2504.9"/>
		<line class="st0" x1="81.1" y1="-2321.9" x2="947.1" y2="-2321.9"/>
	</g>
	<g id="Hexagon">
		<g>
			<line class="st0" x1="-485.9" y1="-2388.9" x2="1514.1" y2="-2388.9"/>
			<line class="st0" x1="211.3" y1="-3230.4" x2="1366" y2="-1230.4"/>
			<line class="st0" x1="1366" y1="-2913.4" x2="211.3" y2="-913.4"/>
			<line class="st0" x1="1514.1" y1="-1754.9" x2="-485.9" y2="-1754.9"/>
			<line class="st0" x1="-337.7" y1="-1230.4" x2="817" y2="-3230.4"/>
			<line class="st0" x1="-337.7" y1="-2913.4" x2="817" y2="-913.4"/>
		</g>
		<g>
			<line class="st0" x1="-510.4" y1="-1846.4" x2="1221.7" y2="-2846.4"/>
			<line class="st0" x1="-193.4" y1="-2846.4" x2="1538.7" y2="-1846.4"/>
			<line class="st0" x1="831.1" y1="-3071.9" x2="831.1" y2="-1071.9"/>
			<line class="st0" x1="1538.7" y1="-2297.3" x2="-193.4" y2="-1297.3"/>
			<line class="st0" x1="197.1" y1="-1071.9" x2="197.2" y2="-3071.9"/>
			<line class="st0" x1="-510.4" y1="-2297.3" x2="1221.7" y2="-1297.3"/>
		</g>
	</g>
	<g id="Super_star">
		<g>
			<line class="st0" x1="380.2" y1="-2839.8" x2="782.1" y2="-1339.8"/>
			<line class="st0" x1="2362.2" y1="-2638.8" x2="-1369.8" y2="-1638.8"/>
			<line class="st0" x1="246.2" y1="-2803.9" x2="648.1" y2="-1303.9"/>
			<line class="st0" x1="3331.1" y1="-2754.9" x2="-2266.9" y2="-1254.9"/>
		</g>
		<g>
			<line class="st0" x1="1215.1" y1="-2870.9" x2="-284.9" y2="-1370.9"/>
			<line class="st0" x1="1313.2" y1="-2772.8" x2="-186.8" y2="-1272.8"/>
			<line class="st0" x1="-186.8" y1="-2870.9" x2="1313.2" y2="-1370.9"/>
			<line class="st0" x1="-284.9" y1="-2772.8" x2="1215.1" y2="-1272.8"/>
		</g>
		<g>
			<line class="st0" x1="648.1" y1="-2839.8" x2="246.2" y2="-1339.8"/>
			<line class="st0" x1="-2302.8" y1="-2754.9" x2="3295.2" y2="-1254.9"/>
			<line class="st0" x1="380.2" y1="-1303.9" x2="782.1" y2="-2803.9"/>
			<line class="st0" x1="3331.1" y1="-1388.8" x2="-2266.9" y2="-2888.8"/>
		</g>
	</g>
</g>
<g id="Pen_tooled" class="st1">
	<g class="st2">
		<g>
			<path d="M513.1-2543.6l140,140l-25.3,94.5l-19.3,72.1l52.8-52.8l69.2-69.2l191.2,51.2l-51.2,191.2l-94.5,25.3l-72.1,19.3
				l72.1,19.3l94.5,25.3l51.2,191.2l-191.2,51.2l-69.2-69.2l-52.8-52.8l19.3,72.1l25.3,94.5l-140,140l-140-140l25.3-94.5l19.3-72.1
				L365-1854l-69.2,69.2L104.6-1836l51.2-191.2l94.5-25.3l72.1-19.3l-72.1-19.3l-94.5-25.3l-51.2-191.2l191.2-51.2l69.2,69.2
				l52.8,52.8l-19.3-72.1l-25.3-94.5L513.1-2543.6 M513.1-2571.9l-162.3,162.3l28.3,105.7l-77.4-77.4l-221.7,59.4l59.4,221.7
				l105.7,28.3l-105.7,28.3l-59.4,221.7l221.7,59.4l77.4-77.4l-28.3,105.7l162.3,162.3l162.3-162.3l-28.3-105.7l77.4,77.4
				l221.7-59.4l-59.4-221.7l-105.6-28.3l105.6-28.3l59.4-221.7l-221.7-59.4l-77.4,77.4l28.3-105.7L513.1-2571.9L513.1-2571.9z"/>
		</g>
		<g>
			<path d="M749-2480.4l51.2,191.2L731-2220l-52.8,52.8l72.1-19.3l94.5-25.3l140,140l-140,140l-94.5-25.3l-72.1-19.3l52.8,52.8
				l69.2,69.2L749-1663.3l-191.2-51.2l-25.3-94.5l-19.3-72.1l-19.3,72.1l-25.3,94.5l-191.2,51.2L226-1854.6l69.2-69.2l52.8-52.8
				l-72.1,19.3l-94.5,25.3l-140-140l140-140l94.5,25.3l72.1,19.3l-52.8-52.8l-69.2-69.2l51.2-191.2l191.2,51.2l25.4,94.4l19.3,72
				l19.3-72l25.3-94.4L749-2480.4 M763.1-2504.9l-221.7,59.4l-28.3,105.5l-28.3-105.5l-221.7-59.4l-59.4,221.7l77.4,77.4
				l-105.7-28.3L13.1-2071.9l162.3,162.3l105.7-28.3l-77.4,77.4l59.4,221.7l221.7-59.4l28.3-105.7l28.3,105.7l221.7,59.4l59.4-221.7
				l-77.4-77.4l105.7,28.3l162.3-162.3l-162.3-162.3l-105.7,28.3l77.4-77.4L763.1-2504.9L763.1-2504.9z"/>
		</g>
		<g>
			<path d="M513.2-2262.6l16.6,61.9l9,33.5l24.5-24.5l45.3-45.3l-16.6,61.9l-9,33.5l33.5-9l61.9-16.6l-45.3,45.3l-24.5,24.5l33.5,9
				l61.9,16.6l-61.9,16.6l-33.5,9l24.5,24.5l45.3,45.3l-61.9-16.6l-33.5-9l9,33.5l16.6,61.9l-45.3-45.3l-24.5-24.5l-9,33.5
				l-16.6,61.9l-16.6-61.9l-9-33.5l-24.5,24.5l-45.3,45.3l16.6-61.9l9-33.5l-33.5,9l-61.9,16.6l45.3-45.3l24.5-24.5l-33.5-9
				l-61.9-16.6l61.9-16.6l33.5-9l-24.5-24.5l-45.3-45.3l61.9,16.6l33.5,9l-9-33.5l-16.6-61.9l45.3,45.3l24.5,24.5l9-33.5
				L513.2-2262.6 M513.2-2339.9l-35.9,134.1l-98.1-98.1l35.9,134l-134-35.9l98.1,98.1l-133.9,35.9l133.9,35.9l-98.1,98.1l134-35.9
				l-35.9,134l98.1-98.1l35.9,134l35.9-134l98.1,98.1l-35.9-134l134,35.9l-98.1-98.1l134-35.9l-134-35.9l98.1-98.1l-134,35.9
				l35.9-134l-98.1,98.1L513.2-2339.9L513.2-2339.9z"/>
		</g>
		<g>
			<path d="M538.7-2167.2l4.2,15.6l5.2,19.3l19.3-5.2l15.6-4.2l-4.2,15.6l-5.2,19.3l19.3,5.2l15.6,4.2l-11.4,11.4l-14.1,14.1
				l14.1,14.1l11.4,11.4l-15.6,4.2l-19.3,5.2l5.2,19.3l4.2,15.6l-15.6-4.2l-19.3-5.2l-5.2,19.3l-4.2,15.6l-11.4-11.4l-14.1-14.1
				l-14.1,14.1l-11.4,11.4l-4.2-15.6l-5.2-19.3l-19.3,5.2l-15.6,4.2l4.2-15.6l5.2-19.3l-19.3-5.2l-15.6-4.2l11.4-11.4l14.1-14.1
				l-14.1-14.1l-11.4-11.4l15.6-4.2l19.3-5.2l-5.2-19.3l-4.2-15.6l15.6,4.2l19.3,5.2l5.2-19.3l4.2-15.6l11.4,11.4l14.1,14.1
				l14.1-14.1L538.7-2167.2 M549-2205.8l-35.9,35.9l-35.9-35.9l-13.1,49l-49-13.1l13.1,49l-49,13.1l35.9,35.9l-35.9,35.9l49,13.1
				l-13.1,49l49-13.1l13.1,49l35.9-35.9l35.9,35.9l13.1-49l49,13.1l-13.1-49l49-13.1l-35.9-35.9l35.9-35.9l-49-13.1l13.1-49
				l-49,13.1L549-2205.8L549-2205.8z"/>
		</g>
	</g>
</g>
<g id="Testing">
	<path class="st3" d="M1027.3-2071.9l-108.7-108.6l39.8-148.4L810-2368.7l-39.8-148.4l-148.4,39.8L513.1-2586l-108.6,108.6
		l-148.4-39.8l-39.8,148.4l-148.4,39.8l39.8,148.4L-1-2071.9l108.7,108.6l-39.8,148.4l148.4,39.8l39.8,148.4l148.4-39.8l108.6,108.6
		l108.6-108.6l148.4,39.8L810-1775l148.4-39.8l-39.8-148.4L1027.3-2071.9z M999-2071.9l-86.3,86.3l-17.7-66.2l-75.2-20.2l75.2-20.1
		l17.7-66.2L999-2071.9z M513.1-1987.9l-30.7,30.7l-11.2-42l-42,11.2l11.2-42l-42-11.2l30.7-30.7l-30.7-30.7l42-11.2l-11.2-42
		l42,11.2l11.2-42l30.7,30.7l30.7-30.7l11.2,42l42-11.2l-11.2,42l42,11.2l-30.7,30.7l30.7,30.7l-42,11.2l11.2,42l-42-11.2l-11.2,42
		L513.1-1987.9z M537.9-1934.9l-24.7,92.4l-24.7-92.4l24.7-24.7L537.9-1934.9z M416-2128l-33.8,9.1l-67.6-67.6l92.3,24.8L416-2128z
		 M398.5-2270.4l67.6,67.6L457-2169l-33.8-9.1L398.5-2270.4z M400.9-2071.9l-24.8,24.8l-92.3-24.8l92.3-24.7L400.9-2071.9z
		 M359.8-2112.9l-114.6,30.7l-97.5-26.1l-17.7-66.2l48.5-48.5l97.5,26.1L359.8-2112.9z M359.9-2030.8l-83.9,83.9l-97.5,26.1
		l-48.5-48.5l17.7-66.2l97.5-26.1L359.9-2030.8z M382.2-2024.8l33.8,9.1l-9.1,33.8l-92.3,24.8L382.2-2024.8z M423.2-1965.6l33.8-9.1
		l9.1,33.8l-67.6,67.6L423.2-1965.6z M488.4-2208.8l24.8-92.4l24.8,92.3l-24.9,24.9L488.4-2208.8z M666.4-2112.9l83.9-83.9
		l97.5-26.1l48.5,48.5l-17.7,66.2l-97.5,26.1L666.4-2112.9z M742.5-2071.9l-92.4,24.8l-24.7-24.7l24.7-24.7L742.5-2071.9z
		 M644.1-2118.9l-33.8-9.1l9.1-33.8l0,0l92.3-24.8L644.1-2118.9z M603.1-2178.1l-33.9,9.1l-9-33.6l67.7-67.8L603.1-2178.1z
		 M569.2-1974.7l33.8,9.1l24.8,92.3l-67.6-67.6L569.2-1974.7z M610.3-2015.8l33.8-9.1l67.6,67.6l-92.4-24.8L610.3-2015.8z
		 M666.4-2030.8l114.7-30.7l97.5,26.1l17.7,66.2l-48.5,48.5l-97.5-26.1L666.4-2030.8z M933.9-2314.8l-31.6,118l-48.5-48.5
		l-75.2,20.1l55-55l-17.7-66.2L933.9-2314.8z M811.4-2286.2l-71.4,71.4l-114.7,30.7l30.7-114.7l71.4-71.4l66.2,17.7L811.4-2286.2z
		 M756.1-2492.6l31.6,117.9l-66.2-17.7l-55.1,55l20.1-75.2l-48.5-48.5L756.1-2492.6z M664.3-2406.6l-26.1,97.5l-83.9,83.9
		l-30.7-114.8l26.1-97.4l66.2-17.7L664.3-2406.6z M513.1-2557.7l86.3,86.4l-66.2,17.7l-20.1,75l0,0.1l-20.2-75.1l-66.2-17.7
		L513.1-2557.7z M410.5-2455l66.2,17.7l26.1,97.4l-30.8,114.8l-83.9-83.9l-26.1-97.5L410.5-2455z M270.2-2492.6l117.9,31.6
		l-48.5,48.5l20.1,75.2l-55-55l-66.2,17.7L270.2-2492.6z M232.6-2352.4l66.2-17.7l71.4,71.4l30.7,114.7l-114.7-30.7l-71.4-71.4
		L232.6-2352.4z M92.4-2314.8l117.9-31.6l-17.7,66.2l55,55l-75.2-20.1l-48.5,48.5L92.4-2314.8z M27.3-2071.9l86.3-86.3l17.7,66.2
		l75.2,20.1l-75.2,20.2l-17.7,66.2L27.3-2071.9z M92.4-1828.9l31.6-118l48.5,48.5l75.2-20.1l-55,55l17.7,66.2L92.4-1828.9z
		 M214.9-1857.5l71.4-71.4l114.7-30.7L370.2-1845l-71.4,71.4l-66.2-17.7L214.9-1857.5z M270.2-1651.1l-31.6-118l66.2,17.7l55-55
		l-20.1,75.2l48.5,48.5L270.2-1651.1z M362-1737.1l26.1-97.5l83.9-83.9l30.7,114.7l-26.1,97.5l-66.2,17.7L362-1737.1z M513.1-1586
		l-86.3-86.4l66.2-17.7l20.1-75.2l20.1,75.2l66.2,17.7L513.1-1586z M615.8-1688.7l-66.2-17.7l-26.1-97.5l30.7-114.7l83.9,83.9
		l26.1,97.5L615.8-1688.7z M756.1-1651.1l-117.9-31.6l48.5-48.5l-20.1-75.2l55.1,55l66.2-17.7L756.1-1651.1z M793.7-1791.4
		l-66.2,17.7l-71.4-71.4l-30.7-114.7l114.7,30.7l71.4,71.4L793.7-1791.4z M933.9-1828.9l-118,31.6l17.7-66.2l-55-55l75.2,20.1
		l48.5-48.5L933.9-1828.9z"/>
</g>
<g id="Final_logo">
	<g id="Dark">
		<g class="st1">
			<circle class="st4" cx="514.1" cy="514.1" r="500"/>
			<line class="st4" x1="196.6" y1="-35.9" x2="831.7" y2="1064.1"/>
			<line class="st4" x1="514.1" y1="-120.9" x2="514.1" y2="1149.1"/>
			<line class="st4" x1="831.6" y1="-35.8" x2="196.6" y2="1064.1"/>
			<line class="st4" x1="1064.1" y1="196.6" x2="-35.8" y2="831.6"/>
			<line class="st4" x1="1149.1" y1="514.1" x2="-120.9" y2="514.1"/>
			<line class="st4" x1="1064.1" y1="831.6" x2="-35.8" y2="196.6"/>
		</g>
		<path class="st3" d="M1028.3,514.1L919.6,405.5l39.8-148.4L811,217.3L771.2,68.9l-148.4,39.8L514.1,0L405.5,108.6L257.1,68.9
			l-39.8,148.4L68.9,257.1l39.8,148.4L0,514.1l108.7,108.6L68.9,771.2L217.3,811l39.8,148.4l148.4-39.8l108.6,108.6l108.6-108.6
			l148.4,39.8L811,811l148.4-39.8l-39.8-148.4L1028.3,514.1z M1000,514.1l-86.3,86.3l-17.7-66.2l-75.2-20.2l75.2-20.1l17.7-66.2
			L1000,514.1z M514.1,598.1l-30.7,30.7l-11.2-42l-42,11.2l11.2-42l-42-11.2l30.7-30.7l-30.7-30.7l42-11.2l-11.2-42l42,11.2l11.2-42
			l30.7,30.7l30.7-30.7l11.2,42l42-11.2l-11.2,42l42,11.2l-30.7,30.7l30.7,30.7l-42,11.2l11.2,42l-42-11.2l-11.2,42L514.1,598.1z
			 M538.9,651.1l-24.7,92.4l-24.7-92.4l24.7-24.7L538.9,651.1z M417,458l-33.8,9.1l-67.6-67.6l92.3,24.8L417,458z M399.5,315.6
			l67.6,67.6L458,417l-33.8-9.1L399.5,315.6z M401.9,514.1l-24.8,24.8l-92.3-24.8l92.3-24.7L401.9,514.1z M360.8,473.1l-114.6,30.7
			l-97.5-26.1L131,411.5l48.5-48.5l97.5,26.1L360.8,473.1z M360.9,555.2l-83.9,83.9l-97.5,26.1L131,616.8l17.7-66.2l97.5-26.1
			L360.9,555.2z M383.2,561.2l33.8,9.1l-9.1,33.8l-92.3,24.8L383.2,561.2z M424.2,620.4l33.8-9.1l9.1,33.8l-67.6,67.6L424.2,620.4z
			 M489.4,377.2l24.8-92.4l24.8,92.3l-24.9,24.9L489.4,377.2z M667.4,473.1l83.9-83.9l97.5-26.1l48.5,48.5l-17.7,66.2l-97.5,26.1
			L667.4,473.1z M743.5,514.1l-92.4,24.8l-24.7-24.7l24.7-24.7L743.5,514.1z M645.1,467.1l-33.8-9.1l9.1-33.8l0,0l92.3-24.8
			L645.1,467.1z M604.1,407.9l-33.9,9.1l-9-33.6l67.7-67.8L604.1,407.9z M570.2,611.3l33.8,9.1l24.8,92.3l-67.6-67.6L570.2,611.3z
			 M611.3,570.2l33.8-9.1l67.6,67.6l-92.4-24.8L611.3,570.2z M667.4,555.2l114.7-30.7l97.5,26.1l17.7,66.2l-48.5,48.5l-97.5-26.1
			L667.4,555.2z M934.9,271.2l-31.6,118l-48.5-48.5l-75.2,20.1l55-55L817,239.6L934.9,271.2z M812.4,299.8L741,371.2l-114.7,30.7
			l30.7-114.7l71.4-71.4l66.2,17.7L812.4,299.8z M757.1,93.4l31.6,117.9l-66.2-17.7l-55.1,55l20.1-75.2L639.1,125L757.1,93.4z
			 M665.3,179.4l-26.1,97.5l-83.9,83.9l-30.7-114.8l26.1-97.4l66.2-17.7L665.3,179.4z M514.1,28.3l86.3,86.4l-66.2,17.7l-20.1,75
			l0,0.1L494,132.4l-66.2-17.7L514.1,28.3z M411.5,131l66.2,17.7l26.1,97.4l-30.8,114.8l-83.9-83.9L363,179.4L411.5,131z
			 M271.2,93.4L389.2,125l-48.5,48.5l20.1,75.2l-55-55l-66.2,17.7L271.2,93.4z M233.6,233.6l66.2-17.7l71.4,71.4l30.7,114.7
			l-114.7-30.7l-71.4-71.4L233.6,233.6z M93.4,271.2l117.9-31.6l-17.7,66.2l55,55l-75.2-20.1L125,389.2L93.4,271.2z M28.3,514.1
			l86.3-86.3l17.7,66.2l75.2,20.1l-75.2,20.2l-17.7,66.2L28.3,514.1z M93.4,757.1l31.6-118l48.5,48.5l75.2-20.1l-55,55l17.7,66.2
			L93.4,757.1z M215.9,728.5l71.4-71.4l114.7-30.7L371.2,741l-71.4,71.4l-66.2-17.7L215.9,728.5z M271.2,934.9l-31.6-118l66.2,17.7
			l55-55l-20.1,75.2l48.5,48.5L271.2,934.9z M363,848.9l26.1-97.5l83.9-83.9l30.7,114.7l-26.1,97.5l-66.2,17.7L363,848.9z
			 M514.1,1000l-86.3-86.4l66.2-17.7l20.1-75.2l20.1,75.2l66.2,17.7L514.1,1000z M616.8,897.3l-66.2-17.7l-26.1-97.5l30.7-114.7
			l83.9,83.9l26.1,97.5L616.8,897.3z M757.1,934.9l-117.9-31.6l48.5-48.5l-20.1-75.2l55.1,55l66.2-17.7L757.1,934.9z M794.7,794.6
			l-66.2,17.7L657.1,741l-30.7-114.7L741,657.1l71.4,71.4L794.7,794.6z M934.9,757.1l-118,31.6l17.7-66.2l-55-55l75.2,20.1
			l48.5-48.5L934.9,757.1z"/>
	</g>
	<g id="Light" class="st1">
		<path class="st5" d="M1028.3,514.1L919.6,405.5l39.8-148.4L811,217.3L771.2,68.9l-148.4,39.8L514.1,0L405.5,108.6L257.1,68.9
			l-39.8,148.4L68.9,257.1l39.8,148.4L0,514.1l108.6,108.6L68.9,771.2L217.3,811l39.8,148.4l148.4-39.8l108.6,108.6l108.6-108.6
			l148.4,39.8L811,811l148.4-39.8l-39.8-148.4L1028.3,514.1z M1000,514.1l-86.4,86.3l-17.7-66.2l-75.2-20.2l75.2-20.1l17.7-66.2
			L1000,514.1z M514.1,598.1l-30.7,30.7l-11.2-42l-42,11.2l11.2-42l-42-11.2l30.7-30.7l-30.7-30.7l42-11.2l-11.2-42l42,11.2l11.2-42
			l30.7,30.7l30.7-30.7l11.2,42l42-11.2l-11.2,42l42,11.2l-30.7,30.7l30.7,30.7l-42,11.2l11.2,42l-42-11.2l-11.2,42L514.1,598.1z
			 M538.9,651.1l-24.7,92.4l-24.7-92.4l24.7-24.7L538.9,651.1z M417,458l-33.8,9.1l-67.6-67.6l92.3,24.8L417,458z M399.5,315.6
			l67.6,67.6L458,417l-33.8-9.1L399.5,315.6z M401.9,514.1l-24.8,24.8l-92.3-24.8l92.3-24.7L401.9,514.1z M360.8,473.1l-114.6,30.7
			l-97.5-26.1L131,411.5l48.5-48.5l97.5,26.1L360.8,473.1z M360.9,555.2l-83.9,83.9l-97.5,26.1L131,616.8l17.7-66.2l97.5-26.1
			L360.9,555.2z M383.1,561.2l33.8,9.1l-9.1,33.8l-92.3,24.8L383.1,561.2z M424.2,620.4l33.8-9.1l9.1,33.8l-67.6,67.6L424.2,620.4z
			 M489.4,377.2l24.8-92.4l24.8,92.3l-24.9,24.9L489.4,377.2z M667.4,473.1l83.9-83.9l97.5-26.1l48.5,48.5l-17.7,66.2l-97.5,26.1
			L667.4,473.1z M743.5,514.1l-92.4,24.8l-24.7-24.7l24.7-24.7L743.5,514.1z M645.1,467.1l-33.8-9.1l9.1-33.8l0,0l92.3-24.8
			L645.1,467.1z M604.1,407.9l-33.9,9.1l-9-33.6l67.7-67.8L604.1,407.9z M570.2,611.3l33.8,9.1l24.8,92.3l-67.6-67.6L570.2,611.3z
			 M611.3,570.2l33.8-9.1l67.6,67.6l-92.3-24.8L611.3,570.2z M667.4,555.2l114.7-30.7l97.5,26.1l17.7,66.2l-48.5,48.5l-97.5-26.1
			L667.4,555.2z M934.9,271.2l-31.6,118l-48.5-48.5l-75.2,20.1l55-55L817,239.6L934.9,271.2z M812.4,299.8L741,371.2l-114.6,30.7
			l30.7-114.7l71.4-71.4l66.2,17.7L812.4,299.8z M757.1,93.4l31.6,117.9l-66.2-17.7l-55,55l20.1-75.2L639.1,125L757.1,93.4z
			 M665.3,179.4l-26.1,97.5l-83.9,83.9l-30.7-114.8l26.1-97.4l66.2-17.7L665.3,179.4z M514.1,28.3l86.3,86.4l-66.2,17.7l-20.1,75
			l0,0.1L494,132.4l-66.2-17.7L514.1,28.3z M411.5,131l66.2,17.7l26.1,97.4l-30.8,114.8l-83.9-83.9L363,179.4L411.5,131z
			 M271.2,93.4l118,31.6l-48.5,48.5l20.1,75.2l-55-55l-66.2,17.7L271.2,93.4z M233.6,233.6l66.2-17.7l71.4,71.4l30.7,114.7
			l-114.7-30.7l-71.4-71.4L233.6,233.6z M93.4,271.2l117.9-31.6l-17.7,66.2l55,55l-75.2-20.1L125,389.2L93.4,271.2z M28.3,514.1
			l86.4-86.3l17.7,66.2l75.2,20.1l-75.2,20.2l-17.7,66.2L28.3,514.1z M93.4,757.1l31.6-118l48.5,48.5l75.2-20.1l-55,55l17.7,66.2
			L93.4,757.1z M215.9,728.5l71.4-71.4l114.7-30.7L371.2,741l-71.4,71.4l-66.2-17.7L215.9,728.5z M271.2,934.9l-31.6-118l66.2,17.7
			l55-55l-20.1,75.2l48.5,48.5L271.2,934.9z M363,848.9l26.1-97.5l83.9-83.9l30.7,114.7l-26.1,97.5l-66.2,17.7L363,848.9z
			 M514.1,1000l-86.3-86.4l66.2-17.7l20.1-75.2l20.1,75.2l66.2,17.7L514.1,1000z M616.8,897.3l-66.2-17.7l-26.1-97.5l30.7-114.7
			l83.9,83.9l26.1,97.5L616.8,897.3z M757.1,934.9l-118-31.6l48.5-48.5l-20.1-75.2l55,55l66.2-17.7L757.1,934.9z M794.6,794.6
			l-66.2,17.7L657.1,741l-30.7-114.7L741,657.1l71.4,71.4L794.6,794.6z M934.9,757.1l-118,31.6l17.7-66.2l-55-55l75.2,20.1
			l48.5-48.5L934.9,757.1z"/>
	</g>
</g>
</svg>
