<?xml version="1.0" encoding="utf-8"?>
<!-- Generator: Adobe Illustrator 16.0.0, SVG Export Plug-In . SVG Version: 6.00 Build 0)  -->
<!DOCTYPE svg PUBLIC "-//W3C//DTD SVG 1.1//EN" "http://www.w3.org/Graphics/SVG/1.1/DTD/svg11.dtd">
<svg version="1.1" id="Layer_1" xmlns="http://www.w3.org/2000/svg" xmlns:xlink="http://www.w3.org/1999/xlink" x="0px" y="0px"
	 width="64px" height="64px" viewBox="0 0 64 64" enable-background="new 0 0 64 64" xml:space="preserve">
<path fill="#007BB6" d="M64,32c0,17.67-14.33,32-32,32S0,49.67,0,32S14.33,0,32,0S64,14.33,64,32z"/>
<g>
	<path fill="#FFFFFF" d="M17.47,26.962h6.23V47h-6.23V26.962z M20.585,17c1.991,0,3.609,1.618,3.609,3.61
		c0,1.994-1.618,3.612-3.609,3.612c-1.996,0-3.61-1.618-3.61-3.612C16.975,18.618,18.589,17,20.585,17"/>
	<path fill="#FFFFFF" d="M27.606,26.962h5.975v2.737h0.085c0.831-1.575,2.863-3.236,5.893-3.236c6.303,0,7.467,4.149,7.467,9.547V47
		h-6.221v-9.744c0-2.325-0.046-5.314-3.237-5.314c-3.241,0-3.735,2.532-3.735,5.146V47h-6.226V26.962z"/>
</g>
</svg>
