<?xml version="1.0" encoding="utf-8"?>
<!-- Generator: Adobe Illustrator 16.0.0, SVG Export Plug-In . SVG Version: 6.00 Build 0)  -->
<!DOCTYPE svg PUBLIC "-//W3C//DTD SVG 1.1//EN" "http://www.w3.org/Graphics/SVG/1.1/DTD/svg11.dtd">
<svg version="1.1" id="Layer_1" xmlns="http://www.w3.org/2000/svg" xmlns:xlink="http://www.w3.org/1999/xlink" x="0px" y="0px"
	 width="64px" height="64px" viewBox="0 0 64 64" enable-background="new 0 0 64 64" xml:space="preserve">
<path fill="#C1272D" d="M32,0C14.326,0,0.001,14.327,0.001,32c0,17.674,14.325,32,31.999,32s32-14.326,32-32
	C64,14.327,49.674,0,32,0z"/>
<path fill="#FFFFFF" d="M29.107,30.96c0,0,2.839-0.219,2.839-3.663c0-3.446-2.322-5.127-5.265-5.127H17v19.254h9.682
	c0,0,5.91,0.191,5.91-5.684C32.592,35.74,32.85,30.96,29.107,30.96z M21.267,25.592h5.415c0,0,1.315,0,1.315,2.003
	s-0.772,2.294-1.651,2.294h-5.079V25.592z M26.407,38.001h-5.141v-5.146h5.415c0,0,1.962-0.026,1.962,2.645
	C28.644,37.752,27.178,37.983,26.407,38.001z M40.475,27.068c-7.155,0-7.149,7.396-7.149,7.396s-0.49,7.359,7.149,7.359
	c0,0,6.365,0.378,6.365-5.119h-3.272c0,0,0.107,2.07-2.983,2.07c0,0-3.274,0.227-3.274-3.35h9.64
	C46.949,35.426,48.005,27.068,40.475,27.068z M43.384,32.855h-6.11c0,0,0.398-2.967,3.273-2.967
	C43.42,29.889,43.384,32.855,43.384,32.855z M44.147,23.303h-7.676v2.373h7.676V23.303z"/>
</svg>
