<?xml version="1.0" encoding="utf-8"?>
<!-- Generator: Adobe Illustrator 16.0.0, SVG Export Plug-In . SVG Version: 6.00 Build 0)  -->
<!DOCTYPE svg PUBLIC "-//W3C//DTD SVG 1.1//EN" "http://www.w3.org/Graphics/SVG/1.1/DTD/svg11.dtd">
<svg version="1.1" id="Layer_1" xmlns="http://www.w3.org/2000/svg" xmlns:xlink="http://www.w3.org/1999/xlink" x="0px" y="0px"
	 width="64px" height="64px" viewBox="0 0 64 64" enable-background="new 0 0 64 64" xml:space="preserve">
<path fill="#00AFF0" d="M39.215,31.508c-0.77-0.516-1.713-0.958-2.803-1.318c-1.078-0.354-2.297-0.682-3.621-0.975
	c-1.047-0.249-1.813-0.442-2.268-0.57c-0.444-0.128-0.889-0.305-1.317-0.528c-0.416-0.214-0.743-0.47-0.978-0.762
	c-0.219-0.276-0.325-0.598-0.325-0.981c0-0.627,0.331-1.155,1.015-1.615c0.709-0.479,1.664-0.722,2.839-0.722
	c1.265,0,2.183,0.22,2.733,0.649c0.567,0.444,1.061,1.073,1.471,1.872c0.354,0.626,0.671,1.06,0.979,1.339
	c0.328,0.3,0.805,0.453,1.41,0.453c0.668,0,1.234-0.244,1.684-0.724c0.445-0.478,0.672-1.023,0.672-1.626
	c0-0.626-0.174-1.273-0.513-1.924c-0.337-0.643-0.873-1.262-1.594-1.842c-0.715-0.574-1.626-1.042-2.706-1.388
	c-1.072-0.344-2.36-0.518-3.822-0.518c-1.829,0-3.447,0.263-4.807,0.779c-1.377,0.524-2.447,1.288-3.18,2.271
	c-0.736,0.991-1.111,2.139-1.111,3.412c0,1.335,0.354,2.473,1.059,3.377c0.694,0.893,1.642,1.605,2.815,2.119
	c1.148,0.503,2.593,0.947,4.293,1.322c1.249,0.27,2.261,0.526,3.007,0.767c0.711,0.229,1.301,0.563,1.746,0.991
	c0.427,0.41,0.634,0.933,0.634,1.599c0,0.843-0.397,1.529-1.214,2.103c-0.834,0.587-1.945,0.886-3.3,0.886
	c-0.983,0-1.784-0.147-2.379-0.437c-0.589-0.287-1.054-0.654-1.372-1.092c-0.336-0.457-0.652-1.033-0.942-1.719
	c-0.262-0.627-0.583-1.113-0.961-1.442c-0.395-0.344-0.88-0.517-1.442-0.517c-0.688,0-1.261,0.22-1.71,0.653
	c-0.454,0.438-0.685,0.974-0.685,1.591c0,0.988,0.354,2.014,1.05,3.047c0.689,1.022,1.597,1.851,2.697,2.463
	c1.539,0.84,3.513,1.266,5.866,1.266c1.959,0,3.683-0.313,5.118-0.926c1.449-0.62,2.57-1.495,3.327-2.598
	c0.762-1.109,1.147-2.373,1.147-3.762c0-1.161-0.224-2.16-0.666-2.969C40.621,32.708,39.998,32.033,39.215,31.508z M32,0
	C14.328,0-0.001,14.327-0.001,32c0,17.674,14.329,32,32.001,32c17.676,0,32.001-14.326,32.001-32C64.001,14.327,49.676,0,32,0z
	 M39.671,49.921c-1.626,0-3.155-0.421-4.491-1.161c-0.973,0.187-1.975,0.283-3,0.283c-9.048,0-16.383-7.547-16.383-16.855
	c0-1.16,0.114-2.294,0.332-3.389c-0.827-1.451-1.306-3.141-1.306-4.943c0-5.399,4.253-9.775,9.499-9.775
	c1.859,0,3.591,0.551,5.056,1.5c0.911-0.161,1.846-0.247,2.802-0.247c9.047,0,16.382,7.547,16.382,16.854
	c0,1.242-0.132,2.451-0.379,3.617c0.631,1.309,0.986,2.781,0.986,4.342C49.169,45.543,44.916,49.921,39.671,49.921z"/>
</svg>
