<?xml version="1.0" encoding="utf-8"?>
<!-- Generator: Adobe Illustrator 16.0.0, SVG Export Plug-In . SVG Version: 6.00 Build 0)  -->
<!DOCTYPE svg PUBLIC "-//W3C//DTD SVG 1.1//EN" "http://www.w3.org/Graphics/SVG/1.1/DTD/svg11.dtd">
<svg version="1.1" id="Layer_1" xmlns="http://www.w3.org/2000/svg" xmlns:xlink="http://www.w3.org/1999/xlink" x="0px" y="0px"
	 width="45px" height="45px" viewBox="0 0 45 45" enable-background="new 0 0 45 45" xml:space="preserve">
<path fill="#232732" d="M22,2.5c-11.046,0-19.999,8.955-19.999,20c0,11.046,8.953,20,19.999,20s20-8.954,20-20
	C42,11.455,33.046,2.5,22,2.5z"/>
<path fill="#FFFFFF" d="M20.192,21.85c0,0,1.774-0.137,1.774-2.289c0-2.154-1.451-3.204-3.291-3.204h-6.051V28.39h6.051
	c0,0,3.694,0.12,3.694-3.552C22.37,24.838,22.531,21.85,20.192,21.85z M15.292,18.495h3.384c0,0,0.822,0,0.822,1.251
	c0,1.252-0.482,1.435-1.032,1.435h-3.174V18.495z M18.505,26.251h-3.213v-3.216h3.384c0,0,1.227-0.018,1.227,1.652
	C19.902,26.095,18.986,26.239,18.505,26.251z M27.297,19.418c-4.472,0-4.469,4.623-4.469,4.623s-0.306,4.6,4.469,4.6
	c0,0,3.979,0.235,3.979-3.2h-2.046c0,0,0.067,1.294-1.864,1.294c0,0-2.047,0.142-2.047-2.094h6.025
	C31.344,24.641,32.003,19.418,27.297,19.418z M29.115,23.035h-3.819c0,0,0.249-1.854,2.046-1.854
	C29.138,21.181,29.115,23.035,29.115,23.035z M29.593,17.064h-4.798v1.482h4.798V17.064z"/>
</svg>
