<?xml version="1.0" encoding="utf-8"?>
<!-- Generator: Adobe Illustrator 16.0.0, SVG Export Plug-In . SVG Version: 6.00 Build 0)  -->
<!DOCTYPE svg PUBLIC "-//W3C//DTD SVG 1.1//EN" "http://www.w3.org/Graphics/SVG/1.1/DTD/svg11.dtd">
<svg version="1.1" id="Layer_1" xmlns="http://www.w3.org/2000/svg" xmlns:xlink="http://www.w3.org/1999/xlink" x="0px" y="0px"
	 width="45px" height="45px" viewBox="0 0 45 45" enable-background="new 0 0 45 45" xml:space="preserve">
<circle fill="#232732" cx="22" cy="22.167" r="20"/>
<g>
	<path fill="#FFFFFF" d="M12.919,19.018h3.894v12.524h-3.894V19.018z M14.865,12.792c1.245,0,2.256,1.011,2.256,2.257
		s-1.011,2.257-2.256,2.257c-1.247,0-2.256-1.011-2.256-2.257S13.618,12.792,14.865,12.792"/>
	<path fill="#FFFFFF" d="M19.254,19.018h3.734v1.711h0.053c0.52-0.984,1.79-2.022,3.684-2.022c3.938,0,4.666,2.593,4.666,5.967
		v6.869h-3.888v-6.09c0-1.453-0.028-3.321-2.023-3.321c-2.025,0-2.335,1.582-2.335,3.216v6.195h-3.891V19.018z"/>
</g>
</svg>
