<?xml version="1.0" encoding="utf-8"?>
<!-- Generator: Adobe Illustrator 16.0.0, SVG Export Plug-In . SVG Version: 6.00 Build 0)  -->
<!DOCTYPE svg PUBLIC "-//W3C//DTD SVG 1.1//EN" "http://www.w3.org/Graphics/SVG/1.1/DTD/svg11.dtd">
<svg version="1.1" id="Layer_1" xmlns="http://www.w3.org/2000/svg" xmlns:xlink="http://www.w3.org/1999/xlink" x="0px" y="0px"
	 width="45px" height="45px" viewBox="0 0 45 45" enable-background="new 0 0 45 45" xml:space="preserve">
<path fill="#232732" d="M22.5,3C11.454,3,2.501,11.955,2.501,23c0,11.046,8.953,20,19.999,20c11.046,0,20-8.954,20-20
	C42.5,11.955,33.546,3,22.5,3z M30.634,19.385c0.008,0.168,0.01,0.339,0.01,0.51c0,5.205-3.961,11.208-11.207,11.208
	c-2.224,0-4.294-0.652-6.038-1.771c0.308,0.037,0.621,0.056,0.94,0.056c1.846,0,3.543-0.63,4.891-1.688
	c-1.722-0.031-3.177-1.17-3.678-2.735c0.24,0.046,0.487,0.071,0.741,0.071c0.358,0,0.707-0.049,1.038-0.138
	c-1.802-0.363-3.16-1.955-3.16-3.863c0-0.017,0-0.033,0.001-0.049c0.53,0.295,1.138,0.471,1.784,0.492
	c-1.057-0.707-1.753-1.912-1.753-3.279c0-0.722,0.194-1.398,0.534-1.979c1.941,2.384,4.844,3.95,8.118,4.115
	c-0.067-0.288-0.102-0.589-0.102-0.898c0-2.175,1.764-3.938,3.938-3.938c1.134,0,2.157,0.479,2.876,1.244
	c0.897-0.177,1.741-0.504,2.502-0.955c-0.295,0.919-0.918,1.691-1.732,2.179c0.797-0.095,1.556-0.308,2.262-0.62
	C32.072,18.136,31.404,18.83,30.634,19.385z"/>
</svg>
