<?xml version="1.0" encoding="utf-8"?>
<!-- Generator: Adobe Illustrator 16.0.0, SVG Export Plug-In . SVG Version: 6.00 Build 0)  -->
<!DOCTYPE svg PUBLIC "-//W3C//DTD SVG 1.1//EN" "http://www.w3.org/Graphics/SVG/1.1/DTD/svg11.dtd">
<svg version="1.1" id="Layer_1" xmlns="http://www.w3.org/2000/svg" xmlns:xlink="http://www.w3.org/1999/xlink" x="0px" y="0px"
	 width="64px" height="64px" viewBox="0 0 64 64" enable-background="new 0 0 64 64" xml:space="preserve">
<path fill-rule="evenodd" clip-rule="evenodd" fill="#181616" d="M31.998,0C14.327,0,0,14.327,0,32.003
	C0,46.14,9.167,58.134,21.886,62.366c1.6,0.294,2.184-0.695,2.184-1.542c0-0.76-0.026-2.772-0.042-5.443
	c-8.901,1.934-10.782-4.289-10.782-4.289c-1.454-3.697-3.553-4.682-3.553-4.682c-2.904-1.986,0.22-1.945,0.22-1.945
	c3.212,0.227,4.902,3.299,4.902,3.299c2.855,4.889,7.489,3.477,9.313,2.658c0.292-2.068,1.118-3.479,2.034-4.277
	c-7.107-0.809-14.577-3.555-14.577-15.816c0-3.494,1.246-6.35,3.292-8.587c-0.328-0.81-1.428-4.063,0.315-8.469
	c0,0,2.686-0.86,8.799,3.281c2.554-0.71,5.29-1.065,8.012-1.077c2.718,0.012,5.454,0.367,8.011,1.077
	c6.11-4.141,8.792-3.281,8.792-3.281c1.747,4.406,0.647,7.66,0.319,8.469c2.049,2.237,3.289,5.093,3.289,8.587
	c0,12.293-7.482,14.998-14.612,15.791c1.15,0.988,2.172,2.94,2.172,5.926c0,4.277-0.037,7.729-0.037,8.779
	c0,0.855,0.575,1.851,2.199,1.537C54.841,58.123,64,46.137,64,32.003C64,14.327,49.673,0,31.998,0z"/>
</svg>
