<?xml version="1.0" encoding="utf-8"?>
<!-- Generator: Adobe Illustrator 16.0.0, SVG Export Plug-In . SVG Version: 6.00 Build 0)  -->
<!DOCTYPE svg PUBLIC "-//W3C//DTD SVG 1.1//EN" "http://www.w3.org/Graphics/SVG/1.1/DTD/svg11.dtd">
<svg version="1.1" id="Layer_1" xmlns="http://www.w3.org/2000/svg" xmlns:xlink="http://www.w3.org/1999/xlink" x="0px" y="0px"
	 width="80px" height="40px" viewBox="0 0 80 40" enable-background="new 0 0 80 40" xml:space="preserve">
<g>
	<circle fill="#FFFFFF" cx="40" cy="40" r="38"/>
</g>
<g>
	<g>
		<line fill="none" stroke="#22B573" stroke-miterlimit="10" x1="39.833" y1="6.75" x2="39.833" y2="32.75"/>
		<g>
			<path fill="#22B573" d="M45.333,31.488c-3,1.249-4.211,3.193-5.5,5.262c-1.27-2.088-2.5-3.951-5.5-5.262V30.24
				c2,1.31,4.189,2.885,5.5,4.831c1.33-1.946,3.5-3.583,5.5-4.852V31.488z"/>
			<path fill="#22B573" d="M45.333,28.479c-3,1.249-4.211,3.193-5.5,5.261c-1.27-2.088-2.5-3.95-5.5-5.261v-1.248
				c2,1.31,4.189,2.886,5.5,4.83c1.33-1.944,3.5-3.582,5.5-4.851V28.479z"/>
		</g>
	</g>
</g>
</svg>
