<?xml version="1.0" encoding="utf-8"?>
<!-- Generator: Adobe Illustrator 16.0.0, SVG Export Plug-In . SVG Version: 6.00 Build 0)  -->
<!DOCTYPE svg PUBLIC "-//W3C//DTD SVG 1.1//EN" "http://www.w3.org/Graphics/SVG/1.1/DTD/svg11.dtd">
<svg version="1.1" id="Layer_1" xmlns="http://www.w3.org/2000/svg" xmlns:xlink="http://www.w3.org/1999/xlink" x="0px" y="0px"
	 width="64px" height="64px" viewBox="0 0 64 64" enable-background="new 0 0 64 64" xml:space="preserve">
<path fill="#22B573" d="M32,0C14.325,0,0,14.327,0,32c0,17.674,14.325,32,32,32c17.672,0,32-14.326,32-32C64,14.327,49.672,0,32,0z"
	/>
<g>
	<path fill="#FFFFFF" d="M17.99,24.143c0.813,0.438,12.08,6.489,12.5,6.715s0.963,0.334,1.51,0.334c0.548,0,1.092-0.108,1.511-0.334
		s11.687-6.277,12.5-6.715c0.813-0.437,1.585-1.81,0.089-1.81H17.901C16.406,22.333,17.176,23.706,17.99,24.143z M46.355,27.477
		c-0.925,0.482-12.278,6.419-12.845,6.714c-0.566,0.296-0.963,0.335-1.511,0.335c-0.547,0-0.943-0.039-1.51-0.335
		c-0.566-0.295-11.92-6.231-12.845-6.714C16.995,27.137,17,27.535,17,27.842c0,0.308,0,12.227,0,12.227
		c0,0.698,0.932,1.599,1.653,1.599h26.694c0.723,0,1.652-0.9,1.652-1.599c0,0,0-11.919,0-12.227
		C47,27.535,47.007,27.137,46.355,27.477z"/>
</g>
</svg>
