<?xml version="1.0" encoding="utf-8"?>
<!-- Generator: Adobe Illustrator 16.0.0, SVG Export Plug-In . SVG Version: 6.00 Build 0)  -->
<!DOCTYPE svg PUBLIC "-//W3C//DTD SVG 1.1//EN" "http://www.w3.org/Graphics/SVG/1.1/DTD/svg11.dtd">
<svg version="1.1" id="Layer_1" xmlns="http://www.w3.org/2000/svg" xmlns:xlink="http://www.w3.org/1999/xlink" x="0px" y="0px"
	 width="45px" height="45px" viewBox="0 0 45 45" enable-background="new 0 0 45 45" xml:space="preserve">
<path fill="#232732" d="M27.009,21.859c-0.481-0.322-1.071-0.599-1.751-0.824c-0.674-0.221-1.436-0.426-2.264-0.609
	c-0.654-0.155-1.133-0.275-1.417-0.355c-0.278-0.08-0.556-0.191-0.823-0.33c-0.26-0.135-0.465-0.294-0.611-0.477
	c-0.137-0.173-0.203-0.373-0.203-0.613c0-0.393,0.207-0.723,0.634-1.01c0.443-0.299,1.04-0.451,1.774-0.451
	c0.791,0,1.364,0.138,1.708,0.406c0.354,0.277,0.663,0.67,0.919,1.17c0.221,0.391,0.419,0.662,0.611,0.837
	c0.205,0.187,0.503,0.283,0.882,0.283c0.417,0,0.771-0.153,1.052-0.452c0.278-0.299,0.42-0.641,0.42-1.017
	c0-0.392-0.108-0.796-0.32-1.202c-0.21-0.402-0.545-0.789-0.996-1.151c-0.447-0.358-1.016-0.651-1.691-0.867
	c-0.67-0.215-1.475-0.323-2.389-0.323c-1.143,0-2.154,0.164-3.004,0.486c-0.861,0.328-1.53,0.806-1.987,1.42
	c-0.46,0.619-0.695,1.336-0.695,2.132c0,0.835,0.222,1.546,0.662,2.11c0.434,0.559,1.026,1.004,1.76,1.325
	c0.718,0.313,1.62,0.592,2.683,0.826c0.781,0.168,1.413,0.329,1.879,0.479c0.444,0.143,0.813,0.352,1.091,0.619
	c0.267,0.257,0.396,0.583,0.396,0.999c0,0.527-0.249,0.956-0.759,1.314c-0.521,0.366-1.216,0.554-2.063,0.554
	c-0.614,0-1.115-0.093-1.487-0.273c-0.368-0.179-0.659-0.409-0.857-0.683c-0.21-0.285-0.408-0.646-0.589-1.074
	c-0.164-0.392-0.365-0.695-0.601-0.901c-0.247-0.215-0.55-0.322-0.902-0.322c-0.43,0-0.788,0.137-1.068,0.408
	c-0.284,0.274-0.428,0.608-0.428,0.994c0,0.618,0.221,1.259,0.656,1.904c0.431,0.639,0.998,1.156,1.686,1.539
	c0.962,0.525,2.195,0.791,3.666,0.791c1.225,0,2.302-0.195,3.199-0.578c0.906-0.388,1.606-0.935,2.079-1.624
	c0.477-0.693,0.717-1.482,0.717-2.351c0-0.726-0.14-1.351-0.416-1.855C27.888,22.609,27.499,22.188,27.009,21.859z M22.5,2.167
	c-11.045,0-20,8.954-20,20s8.956,20,20,20c11.047,0,20-8.954,20-20S33.547,2.167,22.5,2.167z M27.294,33.367
	c-1.016,0-1.972-0.263-2.807-0.726c-0.608,0.117-1.234,0.178-1.875,0.178c-5.655,0-10.239-4.717-10.239-10.535
	c0-0.726,0.071-1.434,0.208-2.118c-0.517-0.906-0.816-1.963-0.816-3.09c0-3.374,2.658-6.109,5.937-6.109
	c1.162,0,2.245,0.345,3.16,0.938c0.569-0.101,1.153-0.154,1.751-0.154c5.654,0,10.239,4.718,10.239,10.534
	c0,0.776-0.083,1.532-0.237,2.261c0.394,0.817,0.616,1.738,0.616,2.714C33.23,30.632,30.572,33.367,27.294,33.367z"/>
</svg>
