<?xml version="1.0" encoding="utf-8"?>
<!-- Generator: Adobe Illustrator 16.0.0, SVG Export Plug-In . SVG Version: 6.00 Build 0)  -->
<!DOCTYPE svg PUBLIC "-//W3C//DTD SVG 1.1//EN" "http://www.w3.org/Graphics/SVG/1.1/DTD/svg11.dtd">
<svg version="1.1" id="Layer_1" xmlns="http://www.w3.org/2000/svg" xmlns:xlink="http://www.w3.org/1999/xlink" x="0px" y="0px"
	 width="64px" height="64px" viewBox="0 0 64 64" enable-background="new 0 0 64 64" xml:space="preserve">
<path fill="#00ACED" d="M32,0C14.326,0,0.001,14.327,0.001,32c0,17.674,14.325,32,31.999,32s32-14.326,32-32
	C64,14.327,49.674,0,32,0z M45.015,26.215c0.013,0.271,0.017,0.543,0.017,0.815c0,8.329-6.338,17.934-17.932,17.934
	c-3.558,0-6.87-1.044-9.66-2.833c0.493,0.06,0.993,0.089,1.504,0.089c2.953,0,5.67-1.008,7.826-2.699
	c-2.756-0.05-5.084-1.872-5.886-4.376c0.385,0.072,0.779,0.113,1.186,0.113c0.573,0,1.131-0.078,1.66-0.221
	c-2.884-0.58-5.057-3.127-5.057-6.181c0-0.026,0-0.053,0.002-0.079c0.848,0.473,1.821,0.755,2.854,0.789
	c-1.691-1.132-2.805-3.061-2.805-5.248c0-1.154,0.311-2.236,0.854-3.167c3.106,3.813,7.751,6.321,12.989,6.585
	c-0.107-0.461-0.162-0.942-0.162-1.438c0-3.479,2.821-6.301,6.301-6.301c1.813,0,3.451,0.766,4.602,1.991
	c1.436-0.283,2.785-0.808,4.003-1.529c-0.472,1.471-1.47,2.707-2.771,3.486c1.275-0.152,2.489-0.491,3.619-0.992
	C47.315,24.217,46.246,25.327,45.015,26.215z"/>
</svg>
