<?xml version="1.0" encoding="utf-8"?>
<!-- Generator: Adobe Illustrator 16.0.0, SVG Export Plug-In . SVG Version: 6.00 Build 0)  -->
<!DOCTYPE svg PUBLIC "-//W3C//DTD SVG 1.1//EN" "http://www.w3.org/Graphics/SVG/1.1/DTD/svg11.dtd">
<svg version="1.1" id="Layer_1" xmlns="http://www.w3.org/2000/svg" xmlns:xlink="http://www.w3.org/1999/xlink" x="0px" y="0px"
	 width="45px" height="45px" viewBox="0 0 45 45" enable-background="new 0 0 45 45" xml:space="preserve">
<path fill="#232732" d="M22,2.167c-11.047,0-20,8.954-20,20s8.953,20,20,20c11.045,0,20-8.954,20-20S33.045,2.167,22,2.167z"/>
<g>
	<path fill="#FFFFFF" d="M13.244,17.256c0.508,0.273,7.55,4.056,7.813,4.197c0.262,0.141,0.602,0.208,0.943,0.208
		c0.342,0,0.683-0.067,0.944-0.208c0.262-0.142,7.304-3.924,7.813-4.197c0.508-0.272,0.99-1.131,0.056-1.131H13.188
		C12.254,16.125,12.735,16.983,13.244,17.256z M30.972,19.34c-0.578,0.302-7.674,4.012-8.028,4.196S22.342,23.745,22,23.745
		c-0.342,0-0.59-0.024-0.943-0.209c-0.354-0.185-7.45-3.895-8.028-4.196c-0.406-0.212-0.403,0.036-0.403,0.229s0,7.642,0,7.642
		c0,0.437,0.582,0.999,1.033,0.999h16.684c0.452,0,1.033-0.563,1.033-0.999c0,0,0-7.449,0-7.642S31.379,19.128,30.972,19.34z"/>
</g>
</svg>
