<?xml version="1.0" encoding="utf-8"?>
<!-- Generator: Adobe Illustrator 16.0.0, SVG Export Plug-In . SVG Version: 6.00 Build 0)  -->
<!DOCTYPE svg PUBLIC "-//W3C//DTD SVG 1.1//EN" "http://www.w3.org/Graphics/SVG/1.1/DTD/svg11.dtd">
<svg version="1.1" id="Layer_1" xmlns="http://www.w3.org/2000/svg" xmlns:xlink="http://www.w3.org/1999/xlink" x="0px" y="0px"
	 width="45px" height="45px" viewBox="0 0 45 45" enable-background="new 0 0 45 45" xml:space="preserve">
<path fill-rule="evenodd" clip-rule="evenodd" fill="#232732" d="M22.999,1.377c-11.324,0-20.505,9.182-20.505,20.508
	c0,9.06,5.875,16.745,14.025,19.458c1.025,0.188,1.399-0.446,1.399-0.988c0-0.487-0.017-1.776-0.027-3.488
	c-5.704,1.239-6.91-2.749-6.91-2.749c-0.932-2.369-2.276-3-2.276-3c-1.861-1.272,0.141-1.246,0.141-1.246
	c2.058,0.146,3.142,2.114,3.142,2.114c1.83,3.132,4.799,2.228,5.967,1.703c0.188-1.325,0.717-2.229,1.304-2.741
	c-4.555-0.519-9.341-2.277-9.341-10.135c0-2.24,0.799-4.069,2.11-5.504c-0.21-0.518-0.915-2.604,0.202-5.427
	c0,0,1.721-0.552,5.638,2.103c1.637-0.455,3.39-0.683,5.134-0.69c1.742,0.008,3.495,0.235,5.133,0.69
	c3.916-2.654,5.634-2.103,5.634-2.103c1.12,2.823,0.415,4.909,0.205,5.427c1.313,1.435,2.107,3.264,2.107,5.504
	c0,7.877-4.795,9.61-9.364,10.118c0.737,0.634,1.393,1.885,1.393,3.798c0,2.741-0.024,4.952-0.024,5.626
	c0,0.548,0.369,1.186,1.409,0.984c8.143-2.716,14.012-10.396,14.012-19.454C43.506,10.559,34.325,1.377,22.999,1.377z"/>
</svg>
