<?xml version="1.0" encoding="utf-8"?>
<!-- Generator: Adobe Illustrator 16.0.0, SVG Export Plug-In . SVG Version: 6.00 Build 0)  -->
<!DOCTYPE svg PUBLIC "-//W3C//DTD SVG 1.1//EN" "http://www.w3.org/Graphics/SVG/1.1/DTD/svg11.dtd">
<svg version="1.1" id="Layer_1" xmlns="http://www.w3.org/2000/svg" xmlns:xlink="http://www.w3.org/1999/xlink" x="0px" y="0px"
	 width="64px" height="64px" viewBox="0 0 64 64" enable-background="new 0 0 64 64" xml:space="preserve">
<circle fill="#FFFFFF" cx="32" cy="32" r="32"/>
<g>
	<path fill="#232732" d="M31.999,2.944C15.953,2.944,2.944,15.954,2.944,32c0,16.048,13.009,29.056,29.055,29.056
		c16.047,0,29.057-13.008,29.057-29.056C61.056,15.954,48.046,2.944,31.999,2.944z M31.999,54.738
		C19.439,54.738,9.262,44.561,9.262,32c0-12.559,10.178-22.74,22.737-22.74c12.562,0,22.739,10.181,22.739,22.74
		C54.738,44.561,44.561,54.738,31.999,54.738z M37.685,19.841H26.315v12.918h-7.106L32,44.791l12.791-12.032h-7.106V19.841z"/>
</g>
</svg>
